<?xml version="1.0" encoding="utf-8"?>
<!-- Generator: Adobe Illustrator 19.1.1, SVG Export Plug-In . SVG Version: 6.00 Build 0)  -->
<svg version="1.1" id="Layer_1" xmlns="http://www.w3.org/2000/svg" xmlns:xlink="http://www.w3.org/1999/xlink" x="0px" y="0px"
	 viewBox="0 0 500 500" style="enable-background:new 0 0 500 500;" xml:space="preserve">
<style type="text/css">
	.st0{fill:none;stroke:#000000;stroke-miterlimit:10;}
</style>
<path class="st0" d="M250,250c92.481-16.317,80.539-113.049-19.99-104.356  c-33.848,2.926-72.221,15.16-101.16,80.166c-35.852,80.533-2.861,152.931,98.199,172.581  c102.082,19.848,191.677-4.805,211.526-106.886C458.624,188.392,391.288,88.55,288.176,68.501  C184.021,48.25,83.171,116.267,62.919,220.421c-20.456,105.206,48.248,207.075,153.454,227.531  c106.269,20.662,209.167-48.735,229.83-155.004c20.871-107.343-49.228-211.28-156.57-232.151  C181.207,39.715,76.219,110.522,55.138,218.948c0,0-31.92,130.979,92.619,168.099c0,0,172.42,66.804,182.87-105.707  C341.078,108.83,140.776,191.751,250,250"/>
</svg>
