<?xml version="1.0" encoding="utf-8"?>
<!-- Generator: Adobe Illustrator 19.1.1, SVG Export Plug-In . SVG Version: 6.00 Build 0)  -->
<svg version="1.1" id="Layer_1" xmlns="http://www.w3.org/2000/svg" xmlns:xlink="http://www.w3.org/1999/xlink" x="0px" y="0px"
	 viewBox="0 0 500 500" style="enable-background:new 0 0 500 500;" xml:space="preserve">
<style type="text/css">
	.st0{fill:none;stroke:#000000;stroke-miterlimit:10;}
</style>
<path class="st0" d="M250,250c-25.62,90.348,71.712,126.563,107.701,32.296  c12.118-31.739,17.832-71.608-28.063-125.986c-56.857-67.367-136.395-69.227-198.126,13.166  c-62.354,83.226-79.214,174.609,4.011,236.963c84.067,62.984,203.274,45.895,266.258-38.172  c63.621-84.916,46.357-205.328-38.559-268.948C277.45,35.056,155.821,52.494,91.559,138.268  c-64.912,86.64-47.298,209.496,39.341,274.408c87.515,65.568,211.613,47.776,277.18-39.739  c66.23-88.398,48.259-213.75-40.141-279.979c0,0-103.973-85.813-191.659,10.098c0,0-135.271,126.068,15.439,210.659  C342.428,398.305,350.029,177.082,250,250"/>
</svg>
