<?xml version="1.0" encoding="utf-8"?>
<!-- Generator: Adobe Illustrator 19.1.1, SVG Export Plug-In . SVG Version: 6.00 Build 0)  -->
<svg version="1.1" id="Layer_1" xmlns="http://www.w3.org/2000/svg" xmlns:xlink="http://www.w3.org/1999/xlink" x="0px" y="0px"
	 viewBox="0 0 500 500" style="enable-background:new 0 0 500 500;" xml:space="preserve">
<style type="text/css">
	.st0{fill:none;stroke:#000000;stroke-miterlimit:10;}
</style>
<path class="st0" d="M249.5,250.5c105.689,32.104,77.364-200.678-31.06-179.583  C111.101,91.802,34.646,176.103,55.53,283.442c20.675,106.266,123.583,175.651,229.849,154.976  c105.203-20.469,173.895-122.346,153.426-227.55C418.541,106.716,317.682,38.712,213.53,58.977  C110.42,79.038,43.096,178.888,63.158,281.998C83.019,384.077,181.87,450.728,283.948,430.867  c101.059-19.662,167.043-117.525,147.381-218.583C411.863,112.236,314.979,46.912,214.932,66.377  C115.885,85.648,51.213,181.563,70.483,280.61c19.078,98.057,114.035,162.082,212.092,143.004  c97.076-18.888,160.46-112.895,141.573-209.971C405.449,117.538,312.383,54.788,216.278,73.486  C121.133,91.998,59.011,184.134,77.522,279.277c18.327,94.193,109.541,155.695,203.733,137.369  c93.251-18.144,154.138-108.445,135.994-201.697C399.288,122.631,310.403,69.452,218.084,87.414  c-91.396,17.782-119.805,94.383-102.022,185.779c17.604,90.48,120.693,114.153,157.79,100.846  C439.073,314.77,301.072,101.916,249.5,250.5"/>
</svg>
