<?xml version="1.0" encoding="utf-8"?>
<!-- Generator: Adobe Illustrator 19.1.1, SVG Export Plug-In . SVG Version: 6.00 Build 0)  -->
<svg version="1.1" id="Layer_1" xmlns="http://www.w3.org/2000/svg" xmlns:xlink="http://www.w3.org/1999/xlink" x="0px" y="0px"
	 viewBox="0 0 500 500" style="enable-background:new 0 0 500 500;" xml:space="preserve">
<style type="text/css">
	.st0{fill:none;stroke:#000000;stroke-miterlimit:10;}
</style>
<path class="st0" d="M249.5,250.5c54.107-96.299-175.013-122.475-177.758-12.053    c-2.718,109.32,63.143,202.132,172.462,204.849c108.225,2.692,198.142-82.862,200.83-191.087    c2.664-107.143-82.032-196.16-189.176-198.823C149.787,50.749,61.66,134.6,59.024,240.671    c-2.611,105.012,80.4,192.255,185.412,194.867c103.961,2.584,190.332-79.598,192.917-183.558    c2.559-102.922-78.802-188.431-181.723-190.989c-101.893-2.533-186.545,78.013-189.08,179.906    c-2.507,100.872,77.233,184.68,178.106,187.187c99.865,2.483,182.833-76.46,185.316-176.324    c2.459-98.867-75.695-181.005-174.561-183.464c-97.878-2.432-179.196,74.939-181.629,172.817    c-2.409,96.897,74.19,177.401,171.087,179.811c95.93,2.385,175.629-73.447,178.015-169.376    c2.36-94.972-72.714-173.873-167.685-176.234c-94.02-2.337-165.09,73.011-167.428,167.033    c-2.313,93.082,66.374,137.317,159.454,139.632c92.149,2.291,154.156-92.387,149.147-131.479C374.071,76.392,58.964,111,249.5,250.5"/>
</svg>
