<?xml version="1.0" encoding="utf-8"?>
<!-- Generator: Adobe Illustrator 19.1.1, SVG Export Plug-In . SVG Version: 6.00 Build 0)  -->
<svg version="1.1" id="Layer_1" xmlns="http://www.w3.org/2000/svg" xmlns:xlink="http://www.w3.org/1999/xlink" x="0px" y="0px"
	 viewBox="0 0 500 500" style="enable-background:new 0 0 500 500;" xml:space="preserve">
<style type="text/css">
	.st0{fill:none;stroke:#000000;stroke-miterlimit:10;}
</style>
<path class="st0" d="M252.3,251.3c53.3-30.3,29.3-85.3-29.7-77.1c-68,9.5-75.5,95.1-61.6,129c9.1,22.2,64.5,104,162.9,74.1
	c94.6-28.8,131.6-131.2,82.7-217.2C357.3,73.3,246.9,43,160.1,92.4C72.3,142.3,41.7,253.8,91.6,341.5
	c50.4,88.6,163.1,119.6,251.7,69.2C432.7,359.8,464,246,413.1,156.5c-51.4-90.4-166.4-122-256.8-70.6C65,137.9,33.1,254,85.1,345.3
	c52.5,92.2,169.8,124.5,262,72c93.2-53,125.7-171.5,72.7-264.6c-53.5-94.1-173.2-127-267.3-73.4c-95,54.1-128.3,175-74.2,270
	c54.6,96,176.7,129.6,272.7,74.9c0,0,164.8-102.6,50.8-257.3c0,0-70.5-111.2-221.3-40.8S245,408.5,308.2,321.9
	C359.9,251.1,246.8,254.5,252.3,251.3z"/>
</svg>
